<svg xmlns="http://www.w3.org/2000/svg" version="1.1" xmlns:xlink="http://www.w3.org/1999/xlink" xmlns:svgjs="http://svgjs.dev/svgjs" width="1000" height="1000" viewBox="0 0 1000 1000"><rect width="1000" height="1000" fill="#ffffff"></rect><g transform="matrix(0.7,0,0,0.7,150.07466666666664,378.48865590384617)"><svg viewBox="0 0 375 130" data-background-color="#ffffff" preserveAspectRatio="xMidYMid meet" height="346" width="1000" xmlns="http://www.w3.org/2000/svg" xmlns:xlink="http://www.w3.org/1999/xlink"><g id="tight-bounds" transform="matrix(1,0,0,1,-0.03976000000000113,0.22078750000000014)"><svg viewBox="0 0 375.07953 129.558425" height="129.558425" width="375.07953"><g><svg></svg></g><g><svg viewBox="0 0 375.07953 129.558425" height="129.558425" width="375.07953"><g transform="matrix(1,0,0,1,-10.22024,-62.59470999999999)"><path d="M10.22 184.605v-122.01h375.08v122.01l-20.384 0 0-2.982h17.402v-116.046h-369.116v116.046h30.797l0 2.982z" fill="#010c80" fill-rule="nonzero" stroke="none" stroke-width="1" stroke-linecap="butt" stroke-linejoin="miter" stroke-miterlimit="10" stroke-dasharray="" stroke-dashoffset="0" font-family="none" font-weight="none" font-size="none" text-anchor="none" style="mix-blend-mode: normal" data-fill-palette-color="tertiary"></path><g><path transform="translate(52.71173,188.20959) scale(0.39045,0.39045)" d="M18.3-34.2h2.4l-8.85 20.75v13.45h-2.3v-13.4l-8.95-20.8h2.45l7.7 18.65zM36.32-26.6c2.867 0 5.083 1.123 6.65 3.37 1.567 2.253 2.35 5.613 2.35 10.08v0c0 4.433-0.8 7.823-2.4 10.17-1.6 2.353-3.817 3.53-6.65 3.53v0c-2.833 0-5.04-1.167-6.62-3.5-1.587-2.333-2.38-5.683-2.38-10.05v0c0-4.433 0.8-7.81 2.4-10.13 1.6-2.313 3.817-3.47 6.65-3.47zM36.32-24.65c-2.133 0-3.783 0.94-4.95 2.82-1.167 1.887-1.75 4.83-1.75 8.83v0c0 3.9 0.577 6.8 1.73 8.7 1.147 1.9 2.787 2.85 4.92 2.85v0c4.467 0 6.7-3.9 6.7-11.7v0c0-7.667-2.217-11.5-6.65-11.5zM70.65-26.1v26.1h-1.9l-0.15-4.55c-1.767 3.4-4.083 5.1-6.95 5.1v0c-1.9 0-3.41-0.65-4.53-1.95-1.113-1.3-1.67-3.05-1.67-5.25v0-19.45h2.25v19.25c0 1.8 0.373 3.157 1.12 4.07 0.753 0.92 1.797 1.38 3.13 1.38v0c2.567 0 4.717-1.867 6.45-5.6v0-19.1zM91.07-26.6c0.633 0 1.317 0.1 2.05 0.3v0l-0.4 2c-0.667-0.167-1.267-0.25-1.8-0.25v0c-1.467 0-2.657 0.64-3.57 1.92-0.92 1.287-1.697 3.247-2.33 5.88v0 16.75h-2.25v-26.1h1.95l0.15 5.3c0.633-1.967 1.45-3.427 2.45-4.38 1-0.947 2.25-1.42 3.75-1.42zM116.42-34.2h14.15l-0.3 2.05h-11.55v13.3h10v2h-10v14.85h12.1v2h-14.4zM148.6-26.6c0.633 0 1.317 0.1 2.05 0.3v0l-0.4 2c-0.667-0.167-1.267-0.25-1.8-0.25v0c-1.467 0-2.66 0.64-3.58 1.92-0.913 1.287-1.687 3.247-2.32 5.88v0 16.75h-2.25v-26.1h1.95l0.15 5.3c0.633-1.967 1.45-3.427 2.45-4.38 1-0.947 2.25-1.42 3.75-1.42zM173.97-28l0.65 2.2c-1.2 0.433-3.133 0.683-5.8 0.75v0c2.433 1.367 3.65 3.8 3.65 7.3v0c0 2.633-0.683 4.7-2.05 6.2-1.367 1.5-3.267 2.25-5.7 2.25v0c-1.067 0-1.983-0.167-2.75-0.5v0c-0.567 0.367-1.01 0.833-1.33 1.4-0.313 0.567-0.47 1.167-0.47 1.8v0c0 2 1.317 3 3.95 3v0h2.6c2.3 0 4.09 0.583 5.37 1.75 1.287 1.167 1.93 2.7 1.93 4.6v0c0 2.267-0.777 4.06-2.33 5.38-1.547 1.313-3.837 1.97-6.87 1.97v0c-3.133 0-5.4-0.59-6.8-1.77-1.4-1.187-2.1-3.03-2.1-5.53v0h2.05c0.033 1.933 0.55 3.317 1.55 4.15 1 0.833 2.767 1.25 5.3 1.25v0c2.4 0 4.157-0.467 5.27-1.4 1.12-0.933 1.68-2.233 1.68-3.9v0c0-1.5-0.46-2.643-1.38-3.43-0.913-0.78-2.253-1.17-4.02-1.17v0h-2.3c-2.033 0-3.543-0.4-4.53-1.2-0.98-0.8-1.47-1.883-1.47-3.25v0c0-1.667 0.8-3.1 2.4-4.3v0c-2.433-1.533-3.65-4.017-3.65-7.45v0c0-2.7 0.717-4.827 2.15-6.38 1.433-1.547 3.367-2.32 5.8-2.32v0c2.6 0 4.483-0.11 5.65-0.33 1.167-0.213 2.35-0.57 3.55-1.07zM164.72-24.8c-1.867 0-3.267 0.59-4.2 1.77-0.933 1.187-1.4 2.897-1.4 5.13v0c0 2.167 0.5 3.85 1.5 5.05 1 1.2 2.35 1.8 4.05 1.8v0c3.7 0 5.55-2.25 5.55-6.75v0c0-2.167-0.467-3.877-1.4-5.13-0.933-1.247-2.3-1.87-4.1-1.87zM190.09-26.6c2.867 0 5.083 1.123 6.65 3.37 1.567 2.253 2.35 5.613 2.35 10.08v0c0 4.433-0.8 7.823-2.4 10.17-1.6 2.353-3.817 3.53-6.65 3.53v0c-2.833 0-5.04-1.167-6.62-3.5-1.587-2.333-2.38-5.683-2.38-10.05v0c0-4.433 0.8-7.81 2.4-10.13 1.6-2.313 3.817-3.47 6.65-3.47zM190.09-24.65c-2.133 0-3.783 0.94-4.95 2.82-1.167 1.887-1.75 4.83-1.75 8.83v0c0 3.9 0.577 6.8 1.73 8.7 1.147 1.9 2.787 2.85 4.92 2.85v0c4.467 0 6.7-3.9 6.7-11.7v0c0-7.667-2.217-11.5-6.65-11.5zM218.97-26.6c1.9 0 3.357 0.667 4.37 2 1.02 1.333 1.53 3.167 1.53 5.5v0 19.1h-2.25v-18.8c0-3.933-1.35-5.9-4.05-5.9v0c-2.5 0-4.783 1.95-6.85 5.85v0 18.85h-2.25v-26.1h1.95l0.2 4.65c0.967-1.667 2.033-2.943 3.2-3.83 1.167-0.88 2.55-1.32 4.15-1.32zM244.04-26.6c2.867 0 5.083 1.123 6.65 3.37 1.567 2.253 2.35 5.613 2.35 10.08v0c0 4.433-0.8 7.823-2.4 10.17-1.6 2.353-3.817 3.53-6.65 3.53v0c-2.833 0-5.04-1.167-6.62-3.5-1.587-2.333-2.38-5.683-2.38-10.05v0c0-4.433 0.8-7.81 2.4-10.13 1.6-2.313 3.817-3.47 6.65-3.47zM244.04-24.65c-2.133 0-3.783 0.94-4.95 2.82-1.167 1.887-1.75 4.83-1.75 8.83v0c0 3.9 0.577 6.8 1.73 8.7 1.147 1.9 2.787 2.85 4.92 2.85v0c4.467 0 6.7-3.9 6.7-11.7v0c0-7.667-2.217-11.5-6.65-11.5zM284.22-26.6c1.733 0 3.09 0.683 4.07 2.05 0.987 1.367 1.48 3.183 1.48 5.45v0 19.1h-2.2v-18.8c0-1.933-0.317-3.4-0.95-4.4-0.633-1-1.55-1.5-2.75-1.5v0c-2.233 0-4.283 1.883-6.15 5.65v0 19.05h-2.2v-18.8c0-1.933-0.327-3.4-0.98-4.4-0.647-1-1.553-1.5-2.72-1.5v0c-2.267 0-4.333 1.883-6.2 5.65v0 19.05h-2.2v-26.1h1.95l0.15 4.5c1.867-3.333 4.067-5 6.6-5v0c1.4 0 2.567 0.457 3.5 1.37 0.933 0.92 1.55 2.197 1.85 3.83v0c1.867-3.467 4.117-5.2 6.75-5.2zM301.69-26.1h2.25v26.1h-2.25zM302.79-37.15c0.5 0 0.91 0.167 1.23 0.5 0.313 0.333 0.47 0.733 0.47 1.2v0c0 0.467-0.157 0.867-0.47 1.2-0.32 0.333-0.73 0.5-1.23 0.5v0c-0.5 0-0.907-0.167-1.22-0.5-0.32-0.333-0.48-0.733-0.48-1.2v0c0-0.467 0.16-0.867 0.48-1.2 0.313-0.333 0.72-0.5 1.22-0.5zM323.47-26.6c1.167 0 2.223 0.2 3.17 0.6 0.953 0.4 1.88 1.05 2.78 1.95v0l-1.15 1.45c-0.733-0.7-1.477-1.217-2.23-1.55-0.747-0.333-1.587-0.5-2.52-0.5v0c-2.1 0-3.76 0.95-4.98 2.85-1.213 1.9-1.82 4.867-1.82 8.9v0c0 3.967 0.59 6.867 1.77 8.7 1.187 1.833 2.847 2.75 4.98 2.75v0c1.767 0 3.417-0.717 4.95-2.15v0l1.15 1.35c-1.8 1.867-3.833 2.8-6.1 2.8v0c-2.867 0-5.11-1.127-6.73-3.38-1.613-2.247-2.42-5.603-2.42-10.07v0c0-4.433 0.817-7.827 2.45-10.18 1.633-2.347 3.867-3.52 6.7-3.52zM378.56-34.2h2.2l-6.2 34.2h-2.95l-6.15-31.65-6.15 31.65h-2.95l-6.2-34.2h2.3l5.45 31.95 6.2-31.95h2.7l6.25 31.95zM397.29-26.6c2.867 0 5.083 1.123 6.65 3.37 1.567 2.253 2.35 5.613 2.35 10.08v0c0 4.433-0.8 7.823-2.4 10.17-1.6 2.353-3.817 3.53-6.65 3.53v0c-2.833 0-5.043-1.167-6.63-3.5-1.58-2.333-2.37-5.683-2.37-10.05v0c0-4.433 0.8-7.81 2.4-10.13 1.6-2.313 3.817-3.47 6.65-3.47zM397.29-24.65c-2.133 0-3.783 0.94-4.95 2.82-1.167 1.887-1.75 4.83-1.75 8.83v0c0 3.9 0.573 6.8 1.72 8.7 1.153 1.9 2.797 2.85 4.93 2.85v0c4.467 0 6.7-3.9 6.7-11.7v0c0-7.667-2.217-11.5-6.65-11.5zM424.96-26.6c0.633 0 1.317 0.1 2.05 0.3v0l-0.4 2c-0.667-0.167-1.267-0.25-1.8-0.25v0c-1.467 0-2.657 0.64-3.57 1.92-0.92 1.287-1.697 3.247-2.33 5.88v0 16.75h-2.25v-26.1h1.95l0.15 5.3c0.633-1.967 1.45-3.427 2.45-4.38 1-0.947 2.25-1.42 3.75-1.42zM435.29-36.75l2.25-0.3v37.05h-2.25zM447.09-26.1h2.45l-9.3 11.75 10.25 14.35h-2.6l-10.1-14.25zM465.11-34.7c1.7 0 3.16 0.31 4.38 0.93 1.213 0.613 2.403 1.537 3.57 2.77v0l-1.35 1.35c-1.067-1.067-2.1-1.833-3.1-2.3-1-0.467-2.167-0.7-3.5-0.7v0c-1.767 0-3.19 0.573-4.27 1.72-1.087 1.153-1.63 2.613-1.63 4.38v0c0 1.767 0.483 3.19 1.45 4.27 0.967 1.087 2.683 2.097 5.15 3.03v0c2.8 1.1 4.85 2.383 6.15 3.85 1.3 1.467 1.95 3.517 1.95 6.15v0c0 1.833-0.39 3.49-1.17 4.97-0.787 1.487-1.88 2.663-3.28 3.53-1.4 0.867-3 1.3-4.8 1.3v0c-1.833 0-3.467-0.367-4.9-1.1-1.433-0.733-2.767-1.783-4-3.15v0l1.35-1.35c1.2 1.167 2.367 2.05 3.5 2.65 1.133 0.6 2.467 0.9 4 0.9v0c2.1 0 3.777-0.71 5.03-2.13 1.247-1.413 1.87-3.27 1.87-5.57v0c0-2.1-0.483-3.733-1.45-4.9-0.967-1.167-2.717-2.233-5.25-3.2v0c-2.867-1.133-4.907-2.4-6.12-3.8-1.22-1.4-1.83-3.2-1.83-5.4v0c0-1.467 0.35-2.833 1.05-4.1 0.7-1.267 1.683-2.267 2.95-3 1.267-0.733 2.683-1.1 4.25-1.1zM492.69-26.6c2.5 0 4.423 1.117 5.77 3.35 1.353 2.233 2.03 5.583 2.03 10.05v0c0 4.4-0.717 7.79-2.15 10.17-1.433 2.387-3.433 3.58-6 3.58v0c-1.333 0-2.517-0.343-3.55-1.03-1.033-0.68-1.9-1.57-2.6-2.67v0 12.9l-2.25 0.35v-36.2h1.95l0.15 3.8c1.767-2.867 3.983-4.3 6.65-4.3zM492.04-1.45c4.033 0 6.05-3.917 6.05-11.75v0c0-3.933-0.477-6.827-1.43-8.68-0.947-1.847-2.37-2.77-4.27-2.77v0c-1.3 0-2.433 0.39-3.4 1.17-0.967 0.787-1.9 1.897-2.8 3.33v0 14.55c1.633 2.767 3.583 4.15 5.85 4.15zM524.11-4.8c0 1.1 0.14 1.923 0.42 2.47 0.287 0.553 0.747 0.98 1.38 1.28v0l-0.5 1.6c-1.033-0.267-1.81-0.743-2.33-1.43-0.513-0.68-0.82-1.637-0.92-2.87v0c-1.567 2.867-3.783 4.3-6.65 4.3v0c-2.067 0-3.693-0.71-4.88-2.13-1.18-1.413-1.77-3.303-1.77-5.67v0c0-2.7 0.807-4.767 2.42-6.2 1.62-1.433 3.913-2.15 6.88-2.15v0h3.75v-3.2c0-1.967-0.383-3.443-1.15-4.43-0.767-0.98-1.983-1.47-3.65-1.47v0c-1 0-1.977 0.123-2.93 0.37-0.947 0.253-1.987 0.613-3.12 1.08v0l-0.7-1.65c2.467-1.133 4.767-1.7 6.9-1.7v0c2.3 0 4.017 0.657 5.15 1.97 1.133 1.32 1.7 3.213 1.7 5.68v0zM515.81-1.35c2.733 0 4.767-1.683 6.1-5.05v0-7.45h-3.55c-4.767 0-7.15 2.183-7.15 6.55v0c0 1.933 0.407 3.407 1.22 4.42 0.82 1.02 1.947 1.53 3.38 1.53zM543.63-26.6c1.167 0 2.227 0.2 3.18 0.6 0.947 0.4 1.87 1.05 2.77 1.95v0l-1.15 1.45c-0.733-0.7-1.473-1.217-2.22-1.55-0.753-0.333-1.597-0.5-2.53-0.5v0c-2.1 0-3.757 0.95-4.97 2.85-1.22 1.9-1.83 4.867-1.83 8.9v0c0 3.967 0.593 6.867 1.78 8.7 1.18 1.833 2.837 2.75 4.97 2.75v0c1.767 0 3.417-0.717 4.95-2.15v0l1.15 1.35c-1.8 1.867-3.833 2.8-6.1 2.8v0c-2.867 0-5.107-1.127-6.72-3.38-1.62-2.247-2.43-5.603-2.43-10.07v0c0-4.433 0.817-7.827 2.45-10.18 1.633-2.347 3.867-3.52 6.7-3.52zM573.61-14.1c0 0.7-0.033 1.383-0.1 2.05v0h-14.5c0.267 7.067 2.55 10.6 6.85 10.6v0c1.133 0 2.133-0.2 3-0.6 0.867-0.4 1.767-1.033 2.7-1.9v0l1.2 1.35c-1 1.033-2.06 1.817-3.18 2.35-1.113 0.533-2.353 0.8-3.72 0.8v0c-2.867 0-5.11-1.143-6.73-3.43-1.613-2.28-2.42-5.603-2.42-9.97v0c0-4.433 0.773-7.833 2.32-10.2 1.553-2.367 3.68-3.55 6.38-3.55v0c2.7 0 4.74 1.067 6.12 3.2 1.387 2.133 2.08 5.233 2.08 9.3zM571.41-13.85v-1c0-6.533-2-9.8-6-9.8v0c-1.867 0-3.377 0.857-4.53 2.57-1.147 1.72-1.77 4.463-1.87 8.23v0zM604.36-34.2c3.833 0 6.94 1.2 9.32 3.6 2.387 2.4 3.58 6.8 3.58 13.2v0c0 6.467-1.2 10.983-3.6 13.55-2.4 2.567-5.383 3.85-8.95 3.85v0h-5.95v-34.2zM604.61-32.15h-3.55v30.15h3.75c2.967 0 5.373-1.117 7.22-3.35 1.853-2.233 2.78-6.25 2.78-12.05v0c0-4.033-0.483-7.133-1.45-9.3-0.967-2.167-2.183-3.617-3.65-4.35-1.467-0.733-3.167-1.1-5.1-1.1zM642.93-14.1c0 0.7-0.033 1.383-0.1 2.05v0h-14.5c0.267 7.067 2.55 10.6 6.85 10.6v0c1.133 0 2.133-0.2 3-0.6 0.867-0.4 1.767-1.033 2.7-1.9v0l1.2 1.35c-1 1.033-2.057 1.817-3.17 2.35-1.12 0.533-2.363 0.8-3.73 0.8v0c-2.867 0-5.107-1.143-6.72-3.43-1.62-2.28-2.43-5.603-2.43-9.97v0c0-4.433 0.777-7.833 2.33-10.2 1.547-2.367 3.67-3.55 6.37-3.55v0c2.7 0 4.743 1.067 6.13 3.2 1.38 2.133 2.07 5.233 2.07 9.3zM640.73-13.85v-1c0-6.533-2-9.8-6-9.8v0c-1.867 0-3.373 0.857-4.52 2.57-1.153 1.72-1.78 4.463-1.88 8.23v0zM658.31-26.6c2.533 0 4.8 0.95 6.8 2.85v0l-1.15 1.4c-0.967-0.833-1.867-1.433-2.7-1.8-0.833-0.367-1.8-0.55-2.9-0.55v0c-1.467 0-2.65 0.423-3.55 1.27-0.9 0.853-1.35 2.03-1.35 3.53v0c0 1.267 0.39 2.273 1.17 3.02 0.787 0.753 2.197 1.513 4.23 2.28v0c2.433 0.9 4.173 1.917 5.22 3.05 1.053 1.133 1.58 2.683 1.58 4.65v0c0 2.233-0.727 4.033-2.18 5.4-1.447 1.367-3.27 2.05-5.47 2.05v0c-1.6 0-3.01-0.293-4.23-0.88-1.213-0.58-2.353-1.403-3.42-2.47v0l1.25-1.3c1 0.933 1.99 1.627 2.97 2.08 0.987 0.447 2.113 0.67 3.38 0.67v0c1.6 0 2.907-0.483 3.92-1.45 1.02-0.967 1.53-2.317 1.53-4.05v0c0-1.067-0.177-1.94-0.53-2.62-0.347-0.687-0.93-1.297-1.75-1.83-0.813-0.533-1.987-1.1-3.52-1.7v0c-2.3-0.867-3.943-1.827-4.93-2.88-0.98-1.047-1.47-2.387-1.47-4.02v0c0-1.933 0.673-3.533 2.02-4.8 1.353-1.267 3.047-1.9 5.08-1.9zM675.53-26.1h2.25v26.1h-2.25zM676.63-37.15c0.5 0 0.907 0.167 1.22 0.5 0.32 0.333 0.48 0.733 0.48 1.2v0c0 0.467-0.16 0.867-0.48 1.2-0.313 0.333-0.72 0.5-1.22 0.5v0c-0.5 0-0.91-0.167-1.23-0.5-0.313-0.333-0.47-0.733-0.47-1.2v0c0-0.467 0.157-0.867 0.47-1.2 0.32-0.333 0.73-0.5 1.23-0.5zM704.95-28l0.65 2.2c-1.2 0.433-3.133 0.683-5.8 0.75v0c2.433 1.367 3.65 3.8 3.65 7.3v0c0 2.633-0.683 4.7-2.05 6.2-1.367 1.5-3.267 2.25-5.7 2.25v0c-1.067 0-1.983-0.167-2.75-0.5v0c-0.567 0.367-1.007 0.833-1.32 1.4-0.32 0.567-0.48 1.167-0.48 1.8v0c0 2 1.317 3 3.95 3v0h2.6c2.3 0 4.093 0.583 5.38 1.75 1.28 1.167 1.92 2.7 1.92 4.6v0c0 2.267-0.773 4.06-2.32 5.38-1.553 1.313-3.847 1.97-6.88 1.97v0c-3.133 0-5.4-0.59-6.8-1.77-1.4-1.187-2.1-3.03-2.1-5.53v0h2.05c0.033 1.933 0.55 3.317 1.55 4.15 1 0.833 2.767 1.25 5.3 1.25v0c2.4 0 4.16-0.467 5.28-1.4 1.113-0.933 1.67-2.233 1.67-3.9v0c0-1.5-0.457-2.643-1.37-3.43-0.92-0.78-2.263-1.17-4.03-1.17v0h-2.3c-2.033 0-3.54-0.4-4.52-1.2-0.987-0.8-1.48-1.883-1.48-3.25v0c0-1.667 0.8-3.1 2.4-4.3v0c-2.433-1.533-3.65-4.017-3.65-7.45v0c0-2.7 0.717-4.827 2.15-6.38 1.433-1.547 3.367-2.32 5.8-2.32v0c2.6 0 4.483-0.11 5.65-0.33 1.167-0.213 2.35-0.57 3.55-1.07zM695.7-24.8c-1.867 0-3.267 0.59-4.2 1.77-0.933 1.187-1.4 2.897-1.4 5.13v0c0 2.167 0.5 3.85 1.5 5.05 1 1.2 2.35 1.8 4.05 1.8v0c3.7 0 5.55-2.25 5.55-6.75v0c0-2.167-0.467-3.877-1.4-5.13-0.933-1.247-2.3-1.87-4.1-1.87zM723.28-26.6c1.9 0 3.357 0.667 4.37 2 1.02 1.333 1.53 3.167 1.53 5.5v0 19.1h-2.25v-18.8c0-3.933-1.35-5.9-4.05-5.9v0c-2.5 0-4.783 1.95-6.85 5.85v0 18.85h-2.25v-26.1h1.95l0.2 4.65c0.967-1.667 2.033-2.943 3.2-3.83 1.167-0.88 2.55-1.32 4.15-1.32zM756.2-14.1c0 0.7-0.033 1.383-0.1 2.05v0h-14.5c0.267 7.067 2.55 10.6 6.85 10.6v0c1.133 0 2.133-0.2 3-0.6 0.867-0.4 1.767-1.033 2.7-1.9v0l1.2 1.35c-1 1.033-2.057 1.817-3.17 2.35-1.12 0.533-2.363 0.8-3.73 0.8v0c-2.867 0-5.107-1.143-6.72-3.43-1.62-2.28-2.43-5.603-2.43-9.97v0c0-4.433 0.777-7.833 2.33-10.2 1.547-2.367 3.67-3.55 6.37-3.55v0c2.7 0 4.743 1.067 6.13 3.2 1.38 2.133 2.07 5.233 2.07 9.3zM754-13.85v-1c0-6.533-2-9.8-6-9.8v0c-1.867 0-3.373 0.857-4.52 2.57-1.153 1.72-1.78 4.463-1.88 8.23v0zM774.63-26.6c0.633 0 1.317 0.1 2.05 0.3v0l-0.4 2c-0.667-0.167-1.267-0.25-1.8-0.25v0c-1.467 0-2.66 0.64-3.58 1.92-0.913 1.287-1.687 3.247-2.32 5.88v0 16.75h-2.25v-26.1h1.95l0.15 5.3c0.633-1.967 1.45-3.427 2.45-4.38 1-0.947 2.25-1.42 3.75-1.42z" fill="#77d4fc" fill-rule="nonzero" stroke="none" stroke-width="1" stroke-linecap="butt" stroke-linejoin="miter" stroke-miterlimit="10" stroke-dasharray="" stroke-dashoffset="0" font-family="none" font-weight="none" font-size="none" text-anchor="none" style="mix-blend-mode: normal" data-fill-palette-color="secondary"></path></g></g><g transform="matrix(1,0,0,1,29.33176499999999,41.928156510662234)"><svg viewBox="0 0 316.416 45.70211197867554" height="45.70211197867554" width="316.416"><g><svg viewBox="0 0 428.45396455981387 61.8845161623309" height="45.70211197867554" width="316.416"><g transform="matrix(1,0,0,1,112.03796455981387,8.552780453694066)"><svg viewBox="0 0 316.416 44.778955254942765" height="44.778955254942765" width="316.416"><g id="textblocktransform"><svg viewBox="0 0 316.416 44.778955254942765" height="44.778955254942765" width="316.416" id="textblock"><g><svg viewBox="0 0 316.416 44.778955254942765" height="44.778955254942765" width="316.416"><g transform="matrix(1,0,0,1,0,0)"><svg width="316.416" viewBox="4.7 -37 337.26 47.6" height="44.778955254942765" data-palette-color="#010c80"><g class="wordmark-text-0" data-fill-palette-color="primary" id="text-0"><path d="M22.4 0L4.7 0 4.7-34.9 22.4-34.9 22.4-33.3 6.5-33.3 6.5-18.5 21.75-18.5 21.75-16.9 6.5-16.9 6.5-1.6 22.4-1.6 22.4 0ZM31.75 0L30.05 0 30.05-25.4 31.75-25.4 31.75-20.9 32.1-20.9Q32.8-23 34.5-24.2 36.2-25.4 38.8-25.4L38.8-25.4 40.6-25.4 40.6-23.8 38.5-23.8Q37.1-23.8 35.87-23.33 34.65-22.85 33.72-22 32.8-21.15 32.27-19.98 31.75-18.8 31.75-17.35L31.75-17.35 31.75 0ZM64.05 3.15L64.05 3.15Q64.05 7.15 61.4 8.88 58.75 10.6 53.15 10.6L53.15 10.6Q47.85 10.6 45.62 8.9 43.4 7.2 43.4 4.05L43.4 4.05Q43.4 1.65 44.55 0.35 45.7-0.95 47.65-1.5L47.65-1.5 47.65-1.85Q46.5-2.25 45.92-3.15 45.35-4.05 45.35-5.35L45.35-5.35Q45.35-6.95 46.42-8.05 47.5-9.15 49.2-9.3L49.2-9.3 49.2-9.7Q47.2-10.6 46.12-12.53 45.05-14.45 45.05-17.45L45.05-17.45Q45.05-21.7 47.22-23.85 49.4-26 53.15-26L53.15-26Q55.95-26 57.95-24.7L57.95-24.7 57.95-26.8Q57.95-27.65 58.27-27.98 58.6-28.3 59.45-28.3L59.45-28.3 63.9-28.3 63.9-26.8 59.1-26.8 59.1-23.8Q61.2-21.6 61.2-17.45L61.2-17.45Q61.2-13.2 59.05-11.05 56.9-8.9 53.15-8.9L53.15-8.9Q51.75-8.9 50.55-9.2L50.55-9.2Q46.9-8.2 46.9-5.65L46.9-5.65Q46.9-4.3 47.72-3.6 48.55-2.9 50.55-2.9L50.55-2.9 56.55-2.9Q60.6-2.9 62.32-1.35 64.05 0.2 64.05 3.15ZM62.4 3.2L62.4 3.2Q62.4 0.95 61.12-0.2 59.85-1.35 56.45-1.35L56.45-1.35 49.15-1.35Q47.3-0.75 46.17 0.38 45.05 1.5 45.05 3.85L45.05 3.85Q45.05 6.4 46.77 7.78 48.5 9.15 51.8 9.15L51.8 9.15 54.45 9.15Q58.35 9.15 60.37 7.73 62.4 6.3 62.4 3.2ZM53.15-10.35L53.15-10.35Q56.2-10.35 57.8-12 59.4-13.65 59.4-16.35L59.4-16.35 59.4-18.55Q59.4-21.25 57.8-22.9 56.2-24.55 53.15-24.55L53.15-24.55Q50.1-24.55 48.47-22.9 46.85-21.25 46.85-18.55L46.85-18.55 46.85-16.35Q46.85-13.65 48.47-12 50.1-10.35 53.15-10.35ZM77.29 0.6L77.29 0.6Q75.04 0.6 73.22-0.18 71.39-0.95 70.14-2.58 68.89-4.2 68.22-6.7 67.54-9.2 67.54-12.7L67.54-12.7Q67.54-19.65 70.14-22.83 72.74-26 77.29-26L77.29-26Q81.84-26 84.44-22.83 87.04-19.65 87.04-12.7L87.04-12.7Q87.04-9.2 86.37-6.7 85.69-4.2 84.44-2.58 83.19-0.95 81.37-0.18 79.54 0.6 77.29 0.6ZM77.29-0.9L77.29-0.9Q81.09-0.9 83.14-3.5 85.19-6.1 85.19-10.8L85.19-10.8 85.19-14.6Q85.19-19.3 83.14-21.9 81.09-24.5 77.29-24.5L77.29-24.5Q73.49-24.5 71.44-21.9 69.39-19.3 69.39-14.6L69.39-14.6 69.39-10.8Q69.39-6.1 71.44-3.5 73.49-0.9 77.29-0.9ZM104.64 0.6L104.64 0.6Q101.89 0.6 99.67-0.33 97.44-1.25 95.87-3.38 94.29-5.5 93.44-8.95 92.59-12.4 92.59-17.45L92.59-17.45Q92.59-22.5 93.44-25.95 94.29-29.4 95.87-31.53 97.44-33.65 99.67-34.58 101.89-35.5 104.64-35.5L104.64-35.5Q108.69-35.5 111.06-33.68 113.44-31.85 114.74-28.45L114.74-28.45 113.24-27.65Q112.14-30.7 110.12-32.3 108.09-33.9 104.64-33.9L104.64-33.9Q99.89-33.9 97.22-30.48 94.54-27.05 94.54-19.85L94.54-19.85 94.54-15.05Q94.54-7.85 97.22-4.42 99.89-1 104.64-1L104.64-1Q108.34-1 110.39-2.7 112.44-4.4 113.44-7.65L113.44-7.65 114.94-6.85Q113.74-3.3 111.29-1.35 108.84 0.6 104.64 0.6ZM129.49 0.6L129.49 0.6Q127.24 0.6 125.41-0.18 123.59-0.95 122.34-2.58 121.09-4.2 120.41-6.7 119.74-9.2 119.74-12.7L119.74-12.7Q119.74-19.65 122.34-22.83 124.94-26 129.49-26L129.49-26Q134.04-26 136.64-22.83 139.24-19.65 139.24-12.7L139.24-12.7Q139.24-9.2 138.56-6.7 137.89-4.2 136.64-2.58 135.39-0.95 133.56-0.18 131.74 0.6 129.49 0.6ZM129.49-0.9L129.49-0.9Q133.29-0.9 135.34-3.5 137.39-6.1 137.39-10.8L137.39-10.8 137.39-14.6Q137.39-19.3 135.34-21.9 133.29-24.5 129.49-24.5L129.49-24.5Q125.69-24.5 123.64-21.9 121.59-19.3 121.59-14.6L121.59-14.6 121.59-10.8Q121.59-6.1 123.64-3.5 125.69-0.9 129.49-0.9ZM147.98 0L146.28 0 146.28-25.4 147.98-25.4 147.98-21.5 148.34-21.5Q148.98-23.55 150.76-24.78 152.53-26 155.23-26L155.23-26Q157.88-26 159.66-24.73 161.44-23.45 162.13-21.05L162.13-21.05 162.49-21.05Q163.13-23.5 165.13-24.75 167.13-26 169.84-26L169.84-26Q173.28-26 175.24-23.8 177.19-21.6 177.19-17.4L177.19-17.4 177.19 0 175.49 0 175.49-17.35Q175.49-20.75 173.91-22.63 172.34-24.5 169.44-24.5L169.44-24.5Q168.03-24.5 166.78-24.05 165.53-23.6 164.61-22.73 163.69-21.85 163.13-20.63 162.59-19.4 162.59-17.85L162.59-17.85 162.59 0 160.88 0 160.88-17.35Q160.88-20.8 159.31-22.65 157.73-24.5 154.84-24.5L154.84-24.5Q153.44-24.5 152.19-24.05 150.94-23.6 150.01-22.73 149.09-21.85 148.53-20.63 147.98-19.4 147.98-17.85L147.98-17.85 147.98 0ZM186.68 0L186.68-23.9 182.53-23.9 182.53-25.4 186.68-25.4 186.68-34.8Q186.68-36 187.18-36.5 187.68-37 188.88-37L188.88-37 193.53-37 193.53-35.5 188.38-35.5 188.38-25.4 193.53-25.4 193.53-23.9 188.38-23.9 188.38 0 186.68 0ZM206.93 0.6L206.93 0.6Q204.68 0.6 202.85-0.18 201.03-0.95 199.78-2.58 198.53-4.2 197.85-6.7 197.18-9.2 197.18-12.7L197.18-12.7Q197.18-19.65 199.78-22.83 202.38-26 206.93-26L206.93-26Q211.48-26 214.08-22.83 216.68-19.65 216.68-12.7L216.68-12.7Q216.68-9.2 216-6.7 215.33-4.2 214.08-2.58 212.83-0.95 211-0.18 209.18 0.6 206.93 0.6ZM206.93-0.9L206.93-0.9Q210.73-0.9 212.78-3.5 214.83-6.1 214.83-10.8L214.83-10.8 214.83-14.6Q214.83-19.3 212.78-21.9 210.73-24.5 206.93-24.5L206.93-24.5Q203.13-24.5 201.08-21.9 199.03-19.3 199.03-14.6L199.03-14.6 199.03-10.8Q199.03-6.1 201.08-3.5 203.13-0.9 206.93-0.9ZM225.43 0L223.73 0 223.73-25.4 225.43-25.4 225.43-20.9 225.78-20.9Q226.48-23 228.18-24.2 229.88-25.4 232.48-25.4L232.48-25.4 234.28-25.4 234.28-23.8 232.18-23.8Q230.78-23.8 229.55-23.33 228.33-22.85 227.4-22 226.48-21.15 225.95-19.98 225.43-18.8 225.43-17.35L225.43-17.35 225.43 0ZM247.02 0L242.37 0Q241.32 0 240.87-0.45 240.42-0.9 240.42-1.95L240.42-1.95 240.42-23.9 236.27-23.9 236.27-25.4 239.22-25.4Q239.97-25.4 240.22-25.78 240.47-26.15 240.47-26.9L240.47-26.9 240.47-32.6 242.12-32.6 242.12-25.4 247.27-25.4 247.27-23.9 242.12-23.9 242.12-1.5 247.02-1.5 247.02 0ZM264.42 0.6L264.42 0.6Q261.67 0.6 259.45-0.33 257.22-1.25 255.65-3.38 254.07-5.5 253.22-8.95 252.37-12.4 252.37-17.45L252.37-17.45Q252.37-22.5 253.22-25.95 254.07-29.4 255.65-31.53 257.22-33.65 259.45-34.58 261.67-35.5 264.42-35.5L264.42-35.5Q268.47-35.5 270.85-33.68 273.22-31.85 274.52-28.45L274.52-28.45 273.02-27.65Q271.92-30.7 269.9-32.3 267.87-33.9 264.42-33.9L264.42-33.9Q259.67-33.9 257-30.48 254.32-27.05 254.32-19.85L254.32-19.85 254.32-15.05Q254.32-7.85 257-4.42 259.67-1 264.42-1L264.42-1Q268.12-1 270.17-2.7 272.22-4.4 273.22-7.65L273.22-7.65 274.72-6.85Q273.52-3.3 271.07-1.35 268.62 0.6 264.42 0.6ZM283.17 0L281.47 0 281.47-25.4 283.17-25.4 283.17-20.9 283.52-20.9Q284.22-23 285.92-24.2 287.62-25.4 290.22-25.4L290.22-25.4 292.02-25.4 292.02-23.8 289.92-23.8Q288.52-23.8 287.29-23.33 286.07-22.85 285.14-22 284.22-21.15 283.69-19.98 283.17-18.8 283.17-17.35L283.17-17.35 283.17 0ZM315.22 0L311.77 0Q310.02 0 310.02-1.75L310.02-1.75 310.02-3.95 309.67-3.95Q308.97-1.85 307.17-0.63 305.37 0.6 302.62 0.6L302.62 0.6Q299.07 0.6 297.12-1.18 295.17-2.95 295.17-6.65L295.17-6.65Q295.17-10.3 297.34-12.13 299.52-13.95 303.52-13.95L303.52-13.95 310.02-13.95 310.02-17.85Q310.02-21.45 308.44-22.98 306.87-24.5 303.77-24.5L303.77-24.5Q301.32-24.5 299.72-23.48 298.12-22.45 297.22-20L297.22-20 296.02-20.8Q296.97-23.25 298.84-24.63 300.72-26 303.82-26L303.82-26Q307.77-26 309.74-24.05 311.72-22.1 311.72-18.05L311.72-18.05 311.72-1.5 315.22-1.5 315.22 0ZM302.82-0.9L302.82-0.9Q304.32-0.9 305.62-1.35 306.92-1.8 307.89-2.63 308.87-3.45 309.44-4.67 310.02-5.9 310.02-7.5L310.02-7.5 310.02-12.55 303.52-12.55Q300.62-12.55 298.82-11.28 297.02-10 297.02-7.65L297.02-7.65 297.02-5.8Q297.02-3.45 298.64-2.18 300.27-0.9 302.82-0.9ZM321.66 0L321.66-23.9 317.51-23.9 317.51-25.4 321.66-25.4 321.66-34.8Q321.66-36 322.16-36.5 322.66-37 323.87-37L323.87-37 328.51-37 328.51-35.5 323.37-35.5 323.37-25.4 328.51-25.4 328.51-23.9 323.37-23.9 323.37 0 321.66 0ZM341.71 0L337.06 0Q336.01 0 335.56-0.45 335.11-0.9 335.11-1.95L335.11-1.95 335.11-23.9 330.96-23.9 330.96-25.4 333.91-25.4Q334.66-25.4 334.91-25.78 335.16-26.15 335.16-26.9L335.16-26.9 335.16-32.6 336.81-32.6 336.81-25.4 341.96-25.4 341.96-23.9 336.81-23.9 336.81-1.5 341.71-1.5 341.71 0Z" fill="#010c80" data-fill-palette-color="primary"></path></g></svg></g></svg></g></svg></g></svg></g><g><svg viewBox="0 0 101.466727919048 61.8845161623309" height="61.8845161623309" width="101.466727919048"><g><svg xmlns="http://www.w3.org/2000/svg" xmlns:xlink="http://www.w3.org/1999/xlink" version="1.1" x="0" y="0" viewBox="7.384 22.665 82.266 50.174" enable-background="new 0 0 96 96" xml:space="preserve" height="61.8845161623309" width="101.466727919048" class="icon-icon-0" data-fill-palette-color="accent" id="icon-0"><polygon points="40.886,48.171 40.886,48.921 40.886,71.015 80.134,71.015 40.886,34.009 " fill="#77d4fc" data-fill-palette-color="accent"></polygon><polygon points="57.337,22.665 41.365,32.399 57.337,47.458 " fill="#77d4fc" data-fill-palette-color="accent"></polygon><polygon points="7.384,55.799 21.194,55.799 13.84,49.209 " fill="#77d4fc" data-fill-palette-color="accent"></polygon><polygon points="39.386,70.085 39.386,48.921 15.768,48.921 " fill="#77d4fc" data-fill-palette-color="accent"></polygon><polygon points="89.65,72.839 89.65,63.251 85.468,68.586 " fill="#77d4fc" data-fill-palette-color="accent"></polygon><polygon points="88.859,61.829 72.578,61.829 81.939,70.655 " fill="#77d4fc" data-fill-palette-color="accent"></polygon></svg></g></svg></g></svg></g></svg></g></svg></g><defs></defs></svg><rect width="375.07953" height="129.558425" fill="none" stroke="none" visibility="hidden"></rect></g></svg></g></svg>